<svg xmlns="http://www.w3.org/2000/svg" viewBox="0 0 400 600" width="400" height="600">
  <!-- Placeholder Character for 2.5D Parallax Hero -->
  <!-- Replace this SVG with your actual PNG character image -->
  
  <!-- Shadow -->
  <ellipse cx="200" cy="580" rx="80" ry="12" fill="rgba(0,0,0,0.15)"/>
  
  <!-- Body -->
  <rect x="155" y="280" width="90" height="160" rx="12" fill="#2D4A3E"/>
  
  <!-- Hoodie hood -->
  <path d="M145 300 Q145 260 200 250 Q255 260 255 300 L255 310 Q255 290 200 285 Q145 290 145 310Z" fill="#243D33"/>
  
  <!-- Head -->
  <circle cx="200" cy="220" r="55" fill="#E8D5C4"/>
  
  <!-- Hair -->
  <path d="M150 210 Q150 160 200 155 Q250 160 250 210 Q250 190 200 185 Q150 190 150 210Z" fill="#1A1A2E"/>
  
  <!-- Glasses -->
  <g stroke="#333" stroke-width="2.5" fill="none">
    <rect x="165" y="210" width="28" height="22" rx="6" fill="rgba(200,220,255,0.15)"/>
    <rect x="207" y="210" width="28" height="22" rx="6" fill="rgba(200,220,255,0.15)"/>
    <line x1="193" y1="221" x2="207" y2="221"/>
    <line x1="163" y1="221" x2="155" y2="218"/>
    <line x1="237" y1="221" x2="245" y2="218"/>
  </g>
  
  <!-- Eyes -->
  <circle cx="179" cy="222" r="3" fill="#1A1A2E"/>
  <circle cx="221" cy="222" r="3" fill="#1A1A2E"/>
  
  <!-- Smile -->
  <path d="M188 242 Q200 252 212 242" stroke="#1A1A2E" stroke-width="2" fill="none" stroke-linecap="round"/>
  
  <!-- Arms -->
  <path d="M155 310 Q120 340 130 380" stroke="#2D4A3E" stroke-width="22" fill="none" stroke-linecap="round"/>
  <path d="M245 310 Q280 340 270 380" stroke="#2D4A3E" stroke-width="22" fill="none" stroke-linecap="round"/>
  
  <!-- Hands -->
  <circle cx="130" cy="385" r="12" fill="#E8D5C4"/>
  <circle cx="270" cy="385" r="12" fill="#E8D5C4"/>
  
  <!-- Laptop -->
  <g transform="translate(130, 370)">
    <rect x="0" y="0" width="140" height="8" rx="2" fill="#555"/>
    <rect x="10" y="-50" width="120" height="50" rx="4" fill="#333" transform="rotate(-5, 70, 0)"/>
    <rect x="18" y="-42" width="104" height="36" rx="2" fill="#4A90D9" transform="rotate(-5, 70, 0)"/>
    <!-- Code lines on screen -->
    <g transform="rotate(-5, 70, 0)" opacity="0.7">
      <rect x="24" y="-36" width="40" height="3" rx="1" fill="#98FB98"/>
      <rect x="24" y="-30" width="60" height="3" rx="1" fill="#FFD700"/>
      <rect x="32" y="-24" width="50" height="3" rx="1" fill="#87CEEB"/>
      <rect x="32" y="-18" width="35" height="3" rx="1" fill="#98FB98"/>
      <rect x="24" y="-12" width="55" height="3" rx="1" fill="#DDA0DD"/>
    </g>
  </g>
  
  <!-- Legs -->
  <rect x="165" y="435" width="30" height="100" rx="8" fill="#1A1A2E"/>
  <rect x="205" y="435" width="30" height="100" rx="8" fill="#1A1A2E"/>
  
  <!-- Shoes -->
  <rect x="158" y="530" width="42" height="18" rx="9" fill="#333"/>
  <rect x="200" y="530" width="42" height="18" rx="9" fill="#333"/>
</svg>
